<mxfile host="app.diagrams.net" modified="2020-12-03T07:03:43.919Z" agent="5.0 (X11; Linux x86_64) AppleWebKit/537.36 (KHTML, like Gecko) Chrome/85.0.4183.121 Safari/537.36" etag="9I8mil1vBGOQqwtm1jKX" version="13.10.6" type="github">
  <diagram id="YpBFZiYgMTGodC2UV_4v" name="Page-1">
    <mxGraphModel dx="1036" dy="462" grid="1" gridSize="10" guides="1" tooltips="1" connect="1" arrows="1" fold="1" page="1" pageScale="1" pageWidth="850" pageHeight="1100" math="0" shadow="0">
      <root>
        <mxCell id="0" />
        <mxCell id="1" parent="0" />
        <mxCell id="CQf8hNNn3rh-zCFY-_uT-42" value="User&lt;br&gt;" style="shape=umlActor;verticalLabelPosition=bottom;verticalAlign=top;html=1;outlineConnect=0;" parent="1" vertex="1">
          <mxGeometry x="210" y="300" width="30" height="60" as="geometry" />
        </mxCell>
        <mxCell id="CQf8hNNn3rh-zCFY-_uT-43" value="" style="rounded=0;whiteSpace=wrap;html=1;" parent="1" vertex="1">
          <mxGeometry x="270" y="80" width="460" height="620" as="geometry" />
        </mxCell>
        <mxCell id="CQf8hNNn3rh-zCFY-_uT-44" value="Xem trang tin tức" style="ellipse;whiteSpace=wrap;html=1;" parent="1" vertex="1">
          <mxGeometry x="450" y="430" width="120" height="50" as="geometry" />
        </mxCell>
        <mxCell id="CQf8hNNn3rh-zCFY-_uT-45" value="Xem trang thông tin liên hệ nhà phân phối" style="ellipse;whiteSpace=wrap;html=1;" parent="1" vertex="1">
          <mxGeometry x="435" y="370" width="140" height="50" as="geometry" />
        </mxCell>
        <mxCell id="CQf8hNNn3rh-zCFY-_uT-46" value="Gửi yêu cầu liên hệ" style="ellipse;whiteSpace=wrap;html=1;" parent="1" vertex="1">
          <mxGeometry x="470" y="165" width="120" height="45" as="geometry" />
        </mxCell>
        <mxCell id="CQf8hNNn3rh-zCFY-_uT-47" value="Xem mục hỗ trợ&amp;nbsp;&lt;br&gt;khách hàng" style="ellipse;whiteSpace=wrap;html=1;" parent="1" vertex="1">
          <mxGeometry x="290" y="200" width="120" height="60" as="geometry" />
        </mxCell>
        <mxCell id="CQf8hNNn3rh-zCFY-_uT-48" value="Xem thông tin khác" style="ellipse;whiteSpace=wrap;html=1;" parent="1" vertex="1">
          <mxGeometry x="445" y="550" width="120" height="40" as="geometry" />
        </mxCell>
        <mxCell id="CQf8hNNn3rh-zCFY-_uT-49" value="&amp;lt;&amp;lt;extend&amp;gt;&amp;gt;" style="endArrow=open;endSize=12;dashed=1;html=1;exitX=0;exitY=0.5;exitDx=0;exitDy=0;" parent="1" source="CQf8hNNn3rh-zCFY-_uT-46" target="CQf8hNNn3rh-zCFY-_uT-47" edge="1">
          <mxGeometry width="160" relative="1" as="geometry">
            <mxPoint x="410" y="102.5" as="sourcePoint" />
            <mxPoint x="470" y="460" as="targetPoint" />
          </mxGeometry>
        </mxCell>
        <mxCell id="CQf8hNNn3rh-zCFY-_uT-50" style="edgeStyle=orthogonalEdgeStyle;rounded=0;orthogonalLoop=1;jettySize=auto;html=1;exitX=0.5;exitY=1;exitDx=0;exitDy=0;" parent="1" edge="1">
          <mxGeometry relative="1" as="geometry">
            <mxPoint x="340" y="760" as="sourcePoint" />
            <mxPoint x="340" y="760" as="targetPoint" />
          </mxGeometry>
        </mxCell>
        <mxCell id="CQf8hNNn3rh-zCFY-_uT-51" value="Xem trang giới thiệu công ty" style="ellipse;whiteSpace=wrap;html=1;" parent="1" vertex="1">
          <mxGeometry x="450" y="300" width="120" height="50" as="geometry" />
        </mxCell>
        <mxCell id="CQf8hNNn3rh-zCFY-_uT-52" value="" style="endArrow=open;endFill=1;endSize=12;html=1;entryX=0;entryY=0.5;entryDx=0;entryDy=0;" parent="1" target="CQf8hNNn3rh-zCFY-_uT-69" edge="1">
          <mxGeometry width="160" relative="1" as="geometry">
            <mxPoint x="250" y="320" as="sourcePoint" />
            <mxPoint x="240" y="250" as="targetPoint" />
          </mxGeometry>
        </mxCell>
        <mxCell id="CQf8hNNn3rh-zCFY-_uT-53" value="" style="endArrow=open;endFill=1;endSize=12;html=1;entryX=0;entryY=0.5;entryDx=0;entryDy=0;" parent="1" target="CQf8hNNn3rh-zCFY-_uT-51" edge="1">
          <mxGeometry width="160" relative="1" as="geometry">
            <mxPoint x="250" y="330" as="sourcePoint" />
            <mxPoint x="230" y="180" as="targetPoint" />
          </mxGeometry>
        </mxCell>
        <mxCell id="CQf8hNNn3rh-zCFY-_uT-54" value="" style="endArrow=open;endFill=1;endSize=12;html=1;entryX=0;entryY=1;entryDx=0;entryDy=0;" parent="1" source="CQf8hNNn3rh-zCFY-_uT-42" target="CQf8hNNn3rh-zCFY-_uT-47" edge="1">
          <mxGeometry width="160" relative="1" as="geometry">
            <mxPoint x="110" y="300" as="sourcePoint" />
            <mxPoint x="230" y="235" as="targetPoint" />
          </mxGeometry>
        </mxCell>
        <mxCell id="CQf8hNNn3rh-zCFY-_uT-55" value="" style="endArrow=open;endFill=1;endSize=12;html=1;entryX=0;entryY=0.5;entryDx=0;entryDy=0;" parent="1" target="CQf8hNNn3rh-zCFY-_uT-45" edge="1">
          <mxGeometry width="160" relative="1" as="geometry">
            <mxPoint x="250" y="360" as="sourcePoint" />
            <mxPoint x="200" y="305" as="targetPoint" />
          </mxGeometry>
        </mxCell>
        <mxCell id="CQf8hNNn3rh-zCFY-_uT-56" value="" style="endArrow=open;endFill=1;endSize=12;html=1;entryX=0;entryY=0.5;entryDx=0;entryDy=0;" parent="1" target="CQf8hNNn3rh-zCFY-_uT-44" edge="1">
          <mxGeometry width="160" relative="1" as="geometry">
            <mxPoint x="250" y="370" as="sourcePoint" />
            <mxPoint x="205" y="385" as="targetPoint" />
          </mxGeometry>
        </mxCell>
        <mxCell id="CQf8hNNn3rh-zCFY-_uT-57" value="" style="endArrow=open;endFill=1;endSize=12;html=1;entryX=0;entryY=0.5;entryDx=0;entryDy=0;" parent="1" target="CQf8hNNn3rh-zCFY-_uT-48" edge="1">
          <mxGeometry width="160" relative="1" as="geometry">
            <mxPoint x="240" y="390" as="sourcePoint" />
            <mxPoint x="210" y="465" as="targetPoint" />
          </mxGeometry>
        </mxCell>
        <mxCell id="CQf8hNNn3rh-zCFY-_uT-58" value="Nhà phân phối&lt;br&gt;" style="shape=umlActor;verticalLabelPosition=bottom;verticalAlign=top;html=1;outlineConnect=0;" parent="1" vertex="1">
          <mxGeometry x="790" y="210" width="30" height="60" as="geometry" />
        </mxCell>
        <mxCell id="CQf8hNNn3rh-zCFY-_uT-59" value="Đăng xuất" style="ellipse;whiteSpace=wrap;html=1;" parent="1" vertex="1">
          <mxGeometry x="445" y="490" width="120" height="40" as="geometry" />
        </mxCell>
        <mxCell id="CQf8hNNn3rh-zCFY-_uT-60" value="Admin" style="shape=umlActor;verticalLabelPosition=bottom;verticalAlign=top;html=1;outlineConnect=0;" parent="1" vertex="1">
          <mxGeometry x="790" y="400" width="30" height="60" as="geometry" />
        </mxCell>
        <mxCell id="CQf8hNNn3rh-zCFY-_uT-61" style="edgeStyle=orthogonalEdgeStyle;rounded=0;orthogonalLoop=1;jettySize=auto;html=1;exitX=0.5;exitY=1;exitDx=0;exitDy=0;" parent="1" edge="1">
          <mxGeometry relative="1" as="geometry">
            <mxPoint x="340" y="760" as="sourcePoint" />
            <mxPoint x="340" y="760" as="targetPoint" />
          </mxGeometry>
        </mxCell>
        <mxCell id="CQf8hNNn3rh-zCFY-_uT-62" value="" style="endArrow=open;endFill=1;endSize=12;html=1;entryX=1;entryY=0.5;entryDx=0;entryDy=0;" parent="1" target="CQf8hNNn3rh-zCFY-_uT-48" edge="1">
          <mxGeometry width="160" relative="1" as="geometry">
            <mxPoint x="789.9999999999998" y="300" as="sourcePoint" />
            <mxPoint x="730" y="360" as="targetPoint" />
          </mxGeometry>
        </mxCell>
        <mxCell id="CQf8hNNn3rh-zCFY-_uT-63" value="" style="endArrow=open;endFill=1;endSize=12;html=1;entryX=1;entryY=0.7;entryDx=0;entryDy=0;entryPerimeter=0;" parent="1" target="CQf8hNNn3rh-zCFY-_uT-48" edge="1">
          <mxGeometry width="160" relative="1" as="geometry">
            <mxPoint x="779.9999999999998" y="460" as="sourcePoint" />
            <mxPoint x="730" y="540" as="targetPoint" />
          </mxGeometry>
        </mxCell>
        <mxCell id="CQf8hNNn3rh-zCFY-_uT-64" value="" style="endArrow=open;endFill=1;endSize=12;html=1;entryX=1;entryY=0.5;entryDx=0;entryDy=0;" parent="1" target="CQf8hNNn3rh-zCFY-_uT-69" edge="1">
          <mxGeometry width="160" relative="1" as="geometry">
            <mxPoint x="759.9999999999998" y="260" as="sourcePoint" />
            <mxPoint x="680" y="215" as="targetPoint" />
          </mxGeometry>
        </mxCell>
        <mxCell id="CQf8hNNn3rh-zCFY-_uT-65" style="edgeStyle=orthogonalEdgeStyle;rounded=0;orthogonalLoop=1;jettySize=auto;html=1;exitX=0.5;exitY=1;exitDx=0;exitDy=0;" parent="1" edge="1">
          <mxGeometry relative="1" as="geometry">
            <mxPoint x="565" y="770" as="sourcePoint" />
            <mxPoint x="565" y="770" as="targetPoint" />
          </mxGeometry>
        </mxCell>
        <mxCell id="CQf8hNNn3rh-zCFY-_uT-66" value="" style="endArrow=open;endFill=1;endSize=12;html=1;entryX=1;entryY=0;entryDx=0;entryDy=0;" parent="1" target="CQf8hNNn3rh-zCFY-_uT-82" edge="1">
          <mxGeometry width="160" relative="1" as="geometry">
            <mxPoint x="779.9999999999998" y="490" as="sourcePoint" />
            <mxPoint x="350" y="538" as="targetPoint" />
          </mxGeometry>
        </mxCell>
        <mxCell id="CQf8hNNn3rh-zCFY-_uT-67" value="Hệ thống giới thiệu chuông gọi phục vụ" style="text;align=center;fontStyle=1;verticalAlign=middle;spacingLeft=3;spacingRight=3;strokeColor=none;rotatable=0;points=[[0,0.5],[1,0.5]];portConstraint=eastwest;" parent="1" vertex="1">
          <mxGeometry x="435" y="90" width="120" height="10" as="geometry" />
        </mxCell>
        <mxCell id="CQf8hNNn3rh-zCFY-_uT-68" value="" style="endArrow=open;endFill=1;endSize=12;html=1;entryX=1;entryY=0.5;entryDx=0;entryDy=0;" parent="1" target="CQf8hNNn3rh-zCFY-_uT-59" edge="1">
          <mxGeometry width="160" relative="1" as="geometry">
            <mxPoint x="779.9999999999998" y="450" as="sourcePoint" />
            <mxPoint x="350" y="538" as="targetPoint" />
          </mxGeometry>
        </mxCell>
        <mxCell id="CQf8hNNn3rh-zCFY-_uT-69" value="Xem sản phẩm" style="ellipse;whiteSpace=wrap;html=1;" parent="1" vertex="1">
          <mxGeometry x="440" y="235" width="120" height="45" as="geometry" />
        </mxCell>
        <mxCell id="CQf8hNNn3rh-zCFY-_uT-70" value="Sửa sản phẩm" style="ellipse;whiteSpace=wrap;html=1;" parent="1" vertex="1">
          <mxGeometry x="560" y="120" width="120" height="45" as="geometry" />
        </mxCell>
        <mxCell id="CQf8hNNn3rh-zCFY-_uT-72" value="" style="endArrow=open;endFill=1;endSize=12;html=1;entryX=0.925;entryY=0.25;entryDx=0;entryDy=0;entryPerimeter=0;" parent="1" target="CQf8hNNn3rh-zCFY-_uT-59" edge="1">
          <mxGeometry width="160" relative="1" as="geometry">
            <mxPoint x="769.9999999999998" y="300" as="sourcePoint" />
            <mxPoint x="585" y="530" as="targetPoint" />
          </mxGeometry>
        </mxCell>
        <mxCell id="CQf8hNNn3rh-zCFY-_uT-73" value="" style="endArrow=open;endFill=1;endSize=12;html=1;entryX=0.979;entryY=0.68;entryDx=0;entryDy=0;entryPerimeter=0;" parent="1" target="CQf8hNNn3rh-zCFY-_uT-45" edge="1">
          <mxGeometry width="160" relative="1" as="geometry">
            <mxPoint x="779.9999999999998" y="420" as="sourcePoint" />
            <mxPoint x="585" y="530" as="targetPoint" />
          </mxGeometry>
        </mxCell>
        <mxCell id="CQf8hNNn3rh-zCFY-_uT-74" value="" style="endArrow=open;endFill=1;endSize=12;html=1;entryX=0.907;entryY=0.24;entryDx=0;entryDy=0;entryPerimeter=0;" parent="1" target="CQf8hNNn3rh-zCFY-_uT-45" edge="1">
          <mxGeometry width="160" relative="1" as="geometry">
            <mxPoint x="759.9999999999998" y="270" as="sourcePoint" />
            <mxPoint x="585" y="538" as="targetPoint" />
          </mxGeometry>
        </mxCell>
        <mxCell id="CQf8hNNn3rh-zCFY-_uT-75" value="" style="endArrow=open;endFill=1;endSize=12;html=1;entryX=0.95;entryY=0.2;entryDx=0;entryDy=0;entryPerimeter=0;" parent="1" target="CQf8hNNn3rh-zCFY-_uT-44" edge="1">
          <mxGeometry width="160" relative="1" as="geometry">
            <mxPoint x="759.9999999999998" y="290" as="sourcePoint" />
            <mxPoint x="571.98" y="392" as="targetPoint" />
          </mxGeometry>
        </mxCell>
        <mxCell id="CQf8hNNn3rh-zCFY-_uT-76" value="" style="endArrow=open;endFill=1;endSize=12;html=1;entryX=0.95;entryY=0.2;entryDx=0;entryDy=0;entryPerimeter=0;" parent="1" edge="1">
          <mxGeometry width="160" relative="1" as="geometry">
            <mxPoint x="769.9999999999998" y="430" as="sourcePoint" />
            <mxPoint x="574" y="450" as="targetPoint" />
          </mxGeometry>
        </mxCell>
        <mxCell id="CQf8hNNn3rh-zCFY-_uT-77" value="" style="endArrow=open;endFill=1;endSize=12;html=1;entryX=1;entryY=0.5;entryDx=0;entryDy=0;" parent="1" target="CQf8hNNn3rh-zCFY-_uT-51" edge="1">
          <mxGeometry width="160" relative="1" as="geometry">
            <mxPoint x="769.9999999999998" y="410" as="sourcePoint" />
            <mxPoint x="570" y="267.5" as="targetPoint" />
          </mxGeometry>
        </mxCell>
        <mxCell id="CQf8hNNn3rh-zCFY-_uT-78" value="" style="endArrow=open;endFill=1;endSize=12;html=1;entryX=1.017;entryY=0.38;entryDx=0;entryDy=0;entryPerimeter=0;" parent="1" target="CQf8hNNn3rh-zCFY-_uT-51" edge="1">
          <mxGeometry width="160" relative="1" as="geometry">
            <mxPoint x="749.9999999999998" y="270" as="sourcePoint" />
            <mxPoint x="580" y="335" as="targetPoint" />
          </mxGeometry>
        </mxCell>
        <mxCell id="CQf8hNNn3rh-zCFY-_uT-79" value="" style="endArrow=open;endFill=1;endSize=12;html=1;entryX=0.942;entryY=0.756;entryDx=0;entryDy=0;entryPerimeter=0;" parent="1" target="CQf8hNNn3rh-zCFY-_uT-69" edge="1">
          <mxGeometry width="160" relative="1" as="geometry">
            <mxPoint x="779.9999999999998" y="410" as="sourcePoint" />
            <mxPoint x="580" y="335" as="targetPoint" />
          </mxGeometry>
        </mxCell>
        <mxCell id="CQf8hNNn3rh-zCFY-_uT-80" value="" style="endArrow=open;endFill=1;endSize=12;html=1;entryX=1;entryY=1;entryDx=0;entryDy=0;" parent="1" target="CQf8hNNn3rh-zCFY-_uT-70" edge="1">
          <mxGeometry width="160" relative="1" as="geometry">
            <mxPoint x="779.9999999999998" y="240" as="sourcePoint" />
            <mxPoint x="575" y="182.5" as="targetPoint" />
          </mxGeometry>
        </mxCell>
        <mxCell id="CQf8hNNn3rh-zCFY-_uT-81" value="" style="endArrow=open;endFill=1;endSize=12;html=1;exitX=1;exitY=0.5;exitDx=0;exitDy=0;" parent="1" source="CQf8hNNn3rh-zCFY-_uT-46" edge="1">
          <mxGeometry width="160" relative="1" as="geometry">
            <mxPoint x="790" y="250" as="sourcePoint" />
            <mxPoint x="779.9999999999998" y="250" as="targetPoint" />
          </mxGeometry>
        </mxCell>
        <mxCell id="CQf8hNNn3rh-zCFY-_uT-82" value="Sửa các danh mục khác" style="ellipse;whiteSpace=wrap;html=1;" parent="1" vertex="1">
          <mxGeometry x="445" y="610" width="120" height="60" as="geometry" />
        </mxCell>
        <mxCell id="UKsWi92nixzL7oOzPsWD-1" value="Guest" style="shape=umlActor;verticalLabelPosition=bottom;verticalAlign=top;html=1;outlineConnect=0;" parent="1" vertex="1">
          <mxGeometry x="200" y="580" width="30" height="60" as="geometry" />
        </mxCell>
        <mxCell id="UKsWi92nixzL7oOzPsWD-2" value="Đăng nhập" style="ellipse;whiteSpace=wrap;html=1;" parent="1" vertex="1">
          <mxGeometry x="290" y="570" width="100" height="40" as="geometry" />
        </mxCell>
        <mxCell id="UKsWi92nixzL7oOzPsWD-3" value="Đăng ký" style="ellipse;whiteSpace=wrap;html=1;" parent="1" vertex="1">
          <mxGeometry x="290" y="620" width="100" height="40" as="geometry" />
        </mxCell>
        <mxCell id="HV7P-L8fiALQuDWHSTDo-1" value="" style="endArrow=none;html=1;entryX=0;entryY=0.5;entryDx=0;entryDy=0;" edge="1" parent="1" target="CQf8hNNn3rh-zCFY-_uT-59">
          <mxGeometry width="50" height="50" relative="1" as="geometry">
            <mxPoint x="250" y="380" as="sourcePoint" />
            <mxPoint x="400" y="440" as="targetPoint" />
          </mxGeometry>
        </mxCell>
        <mxCell id="HV7P-L8fiALQuDWHSTDo-2" value="" style="endArrow=none;html=1;entryX=0;entryY=0.5;entryDx=0;entryDy=0;" edge="1" parent="1" target="UKsWi92nixzL7oOzPsWD-2">
          <mxGeometry width="50" height="50" relative="1" as="geometry">
            <mxPoint x="240" y="600" as="sourcePoint" />
            <mxPoint x="290" y="580" as="targetPoint" />
          </mxGeometry>
        </mxCell>
        <mxCell id="HV7P-L8fiALQuDWHSTDo-3" value="" style="endArrow=none;html=1;entryX=0;entryY=0.5;entryDx=0;entryDy=0;" edge="1" parent="1" target="UKsWi92nixzL7oOzPsWD-3">
          <mxGeometry width="50" height="50" relative="1" as="geometry">
            <mxPoint x="240" y="620" as="sourcePoint" />
            <mxPoint x="300" y="600" as="targetPoint" />
          </mxGeometry>
        </mxCell>
      </root>
    </mxGraphModel>
  </diagram>
</mxfile>
